<svg width="37" height="35" viewBox="0 0 37 35" fill="none" xmlns="http://www.w3.org/2000/svg">
<path d="M32.375 14.5833C32.375 24.7916 18.5 33.5416 18.5 33.5416C18.5 33.5416 4.625 24.7916 4.625 14.5833C4.625 11.1023 6.08683 7.76389 8.68889 5.30248C11.291 2.84106 14.8201 1.45825 18.5 1.45825C22.1799 1.45825 25.709 2.84106 28.3111 5.30248C30.9132 7.76389 32.375 11.1023 32.375 14.5833Z" fill="#44B069" stroke="black" stroke-width="2" stroke-linecap="round" stroke-linejoin="round"/>
<path d="M18.5 18.9583C21.0543 18.9583 23.125 16.9995 23.125 14.5833C23.125 12.167 21.0543 10.2083 18.5 10.2083C15.9457 10.2083 13.875 12.167 13.875 14.5833C13.875 16.9995 15.9457 18.9583 18.5 18.9583Z" stroke="black" stroke-width="2" stroke-linecap="round" stroke-linejoin="round"/>
</svg>
