<svg width="17" height="17" viewBox="0 0 17 17" fill="none" xmlns="http://www.w3.org/2000/svg">
<path d="M10.5294 9.49377C10.2076 9.62525 10.0021 10.1289 9.79361 10.3863C9.68669 10.5181 9.55919 10.5387 9.39484 10.4726C8.18724 9.99148 7.26154 9.18564 6.59515 8.07434C6.48226 7.90201 6.50251 7.76588 6.63865 7.60584C6.83986 7.36877 7.09286 7.09949 7.14732 6.78008C7.26818 6.07352 6.34447 3.88178 5.12458 4.87488C1.61435 7.73533 10.9803 15.3219 12.6707 11.2187C13.1488 10.0556 11.0626 9.27529 10.5294 9.49377ZM8.50001 15.5152C7.25855 15.5152 6.037 15.1851 4.96753 14.5602C4.79587 14.4596 4.58835 14.4331 4.39644 14.4852L2.07255 15.123L2.88204 13.3397C2.99228 13.097 2.96406 12.8144 2.80833 12.5986C1.9424 11.3983 1.48452 9.98119 1.48452 8.5C1.48452 4.6315 4.63152 1.48451 8.50001 1.48451C12.3685 1.48451 15.5152 4.6315 15.5152 8.5C15.5152 12.3682 12.3682 15.5152 8.50001 15.5152V15.5152ZM8.50001 0C3.81306 0 1.25685e-05 3.81305 1.25685e-05 8.5C1.25685e-05 10.1489 0.468177 11.7323 1.35769 13.1066L0.0664188 15.9504C-0.0527804 16.2131 -0.00928429 16.5205 0.177317 16.7394C0.320755 16.907 0.528274 17 0.742434 17C1.22122 17 3.83198 16.1796 4.49638 15.9973C5.72456 16.6544 7.10216 17 8.50001 17C13.1866 17 17 13.1866 17 8.5C17 3.81305 13.1866 0 8.50001 0Z" fill="#39AE41"/>
</svg>
